<?xml version="1.0" encoding="utf-8"?>
<!-- Generator: Adobe Illustrator 18.0.0, SVG Export Plug-In . SVG Version: 6.00 Build 0)  -->
<!DOCTYPE svg PUBLIC "-//W3C//DTD SVG 1.1//EN" "http://www.w3.org/Graphics/SVG/1.1/DTD/svg11.dtd">
<svg version="1.1" id="Instagram_w_x2F__circle" xmlns="http://www.w3.org/2000/svg" xmlns:xlink="http://www.w3.org/1999/xlink"
	 x="0px" y="0px" viewBox="0 0 612 792" enable-background="new 0 0 612 792" xml:space="preserve">
<path fill="#EB8485" d="M397.8,396c0,50.7-41.1,91.8-91.8,91.8s-91.8-41.1-91.8-91.8c0-5.2,0.6-10.3,1.5-15.3h-32.1V503
	c0,8.5,6.9,15.4,15.4,15.4h214c8.5,0,15.4-6.9,15.4-15.4V380.7h-32.1C397.2,385.7,397.8,390.8,397.8,396z M306,457.2
	c33.8,0,61.2-27.4,61.2-61.2s-27.4-61.2-61.2-61.2s-61.2,27.4-61.2,61.2S272.2,457.2,306,457.2z M379.4,331.7h36.7
	c5.1,0,9.2-4.1,9.2-9.2v-36.7c0-5.1-4.1-9.2-9.2-9.2h-36.7c-5.1,0-9.2,4.1-9.2,9.2v36.7C370.3,327.6,374.4,331.7,379.4,331.7z
	 M306,102.2C143.8,102.2,12.2,233.8,12.2,396S143.8,689.8,306,689.8S599.8,558.2,599.8,396S468.2,102.2,306,102.2z M459,515
	c0,18.7-15.3,34-34,34H187c-18.7,0-34-15.3-34-34V277c0-18.7,15.3-34,34-34h238c18.7,0,34,15.3,34,34V515z"/>
</svg>
