<?xml version="1.0" encoding="utf-8"?>
<!-- Generator: Adobe Illustrator 18.0.0, SVG Export Plug-In . SVG Version: 6.00 Build 0)  -->
<!DOCTYPE svg PUBLIC "-//W3C//DTD SVG 1.1//EN" "http://www.w3.org/Graphics/SVG/1.1/DTD/svg11.dtd">
<svg version="1.1" id="Layer_1" xmlns="http://www.w3.org/2000/svg" xmlns:xlink="http://www.w3.org/1999/xlink" x="0px" y="0px"
	 viewBox="0 0 325 62.1" enable-background="new 0 0 325 62.1" xml:space="preserve">
<path d="M36.7,1.3H1c-0.5,0-1,0.4-1,1v57.6c0,0.5,0.4,1,1,1h6.5c0.5,0,1-0.4,1-1v-25h23.4c0.5,0,1-0.4,1-1v-6c0-0.5-0.4-1-1-1H8.5
	V9.2h28.3c0.5,0,1-0.4,1-1v-6C37.7,1.7,37.3,1.3,36.7,1.3"/>
<path d="M93.5,52.9H65.8V2.3c0-0.5-0.4-1-1-1h-6.5c-0.5,0-1,0.4-1,1v57.6c0,0.5,0.4,1,1,1h35.1c0.5,0,1-0.4,1-1v-6
	C94.5,53.4,94,52.9,93.5,52.9"/>
<path d="M324,1.3h-7.2c-0.4,0-0.7,0.2-0.9,0.5l-21.8,35.1L272.3,1.8c-0.2-0.3-0.5-0.5-0.9-0.5h-7.2c-0.5,0-1,0.4-1,1v57.6
	c0,0.5,0.4,1,1,1h6.5c0.5,0,1-0.4,1-1V18.2l18.7,29.2c0.2,0.3,0.5,0.5,0.9,0.5h5.6c0.4,0,0.7-0.2,0.9-0.5l18.7-29.2v41.7
	c0,0.5,0.4,1,1,1h6.5c0.5,0,1-0.4,1-1V2.3C325,1.7,324.6,1.3,324,1.3"/>
<path d="M137,54c-12.7,0-22.2-10.3-22.2-22.9S124.3,8.1,137,8.1c12.7,0,22.2,10.3,22.2,22.9S149.7,54,137,54 M137,0
	c-17.2,0-31.1,13.9-31.1,31.1s13.9,31.1,31.1,31.1s31.1-13.9,31.1-31.1S154.2,0,137,0"/>
<path d="M214.8,54c-12.7,0-22.2-10.3-22.2-22.9s9.6-22.9,22.2-22.9c12.7,0,22.2,10.3,22.2,22.9S227.5,54,214.8,54 M214.8,0
	c-17.2,0-31.1,13.9-31.1,31.1s13.9,31.1,31.1,31.1s31.1-13.9,31.1-31.1S232,0,214.8,0"/>
</svg>
