<?xml version="1.0" encoding="utf-8"?>
<!-- Generator: Adobe Illustrator 18.0.0, SVG Export Plug-In . SVG Version: 6.00 Build 0)  -->
<!DOCTYPE svg PUBLIC "-//W3C//DTD SVG 1.1//EN" "http://www.w3.org/Graphics/SVG/1.1/DTD/svg11.dtd">
<svg version="1.1" id="Pinterest_w_x2F__circle" xmlns="http://www.w3.org/2000/svg" xmlns:xlink="http://www.w3.org/1999/xlink"
	 x="0px" y="0px" viewBox="0 0 612 792" enable-background="new 0 0 612 792" xml:space="preserve">
<path fill="#EB8485" d="M306,102.2C143.8,102.2,12.2,233.8,12.2,396S143.8,689.8,306,689.8S599.8,558.2,599.8,396
	S468.2,102.2,306,102.2z M326.1,465.6c-18.8-1.4-26.7-10.8-41.5-19.7c-8.1,42.6-18,83.4-47.4,104.7c-9.1-64.4,13.3-112.7,23.7-164
	c-17.7-29.8,2.1-89.8,39.5-75.1c46,18.2-39.8,110.9,17.8,122.5c60.2,12.1,84.7-104.4,47.4-142.2c-53.9-54.7-156.9-1.3-144.2,77
	c3.1,19.1,22.9,24.9,7.9,51.3c-34.5-7.6-44.8-34.9-43.5-71.1c2.1-59.4,53.3-100.9,104.7-106.7c65-7.2,125.9,23.8,134.4,85
	C434.3,396.4,395.5,471,326.1,465.6z"/>
</svg>
